<svg width="1011" height="596" viewBox="0 0 1011 596" fill="none" xmlns="http://www.w3.org/2000/svg">
<path d="M143.127 542.556C143.127 542.556 85.5431 377.851 169.772 279.506C278.431 152.675 418.842 258.676 471.527 255.598C524.212 252.52 527.182 130.794 684.598 116.269C806.329 105.016 1006.22 104.15 963.583 302.984C931.156 454.167 1111.54 375.865 1076.42 542.875L143.127 542.556Z" fill="#DDE8FD"/>
<path d="M349.059 442.594C349.059 442.594 333.299 424.199 348.088 412.507C348.088 412.507 358.885 405.962 367.693 406.489C367.693 406.489 355.203 427.43 359.25 429.513C363.298 431.596 371.463 405.193 371.463 405.193C371.463 405.193 396.041 402.805 403.946 406.61C403.946 406.61 382.935 423.815 387.362 424.838C391.789 425.861 414.484 408.975 414.484 408.975C414.484 408.975 437.359 412.872 436.143 426.833C434.926 440.794 427.039 445.108 423.574 444.738C420.109 444.367 399.848 436.628 399.404 439.465C398.96 442.303 411.163 451.588 419.702 452.024C419.702 452.024 403.576 469.822 392.872 464.684C382.167 459.545 381.238 451.408 374.558 448.353C367.878 445.298 362.169 445.307 364.931 448.422C367.693 451.538 379.79 454.556 383.597 461.328C387.404 468.1 390.846 472.65 379.757 470.979C368.669 469.308 350.646 461.193 349.851 451.894L349.059 442.594Z" fill="#3A49CD"/>
<path d="M424.911 427.213C424.911 427.213 362.78 424.815 349.046 442.594C349.046 442.594 346.011 451.69 336.671 459.971L335.219 463.938C335.219 463.938 345.983 452.579 349.837 451.903C349.851 451.894 343.828 429.865 424.911 427.213Z" fill="#3A49CD"/>
<path d="M336.685 459.971C336.685 459.971 323.353 469.831 322.428 487.471L324.852 487.689C324.852 487.689 329.108 469.456 336.806 462.327C344.503 455.199 336.685 459.971 336.685 459.971Z" fill="#3A49CD"/>
<path d="M293.965 419.459C293.965 419.459 319.033 405.415 307.334 386.354C307.334 386.354 297.975 374.647 287.946 371.638C287.946 371.638 293.294 400.064 287.946 400.731C282.599 401.398 284.273 368.63 284.273 368.63C284.273 368.63 257.868 355.919 247.488 356.923C247.488 356.923 263.868 384.697 258.516 384.011C253.164 383.326 234.79 355.252 234.79 355.252C234.79 355.252 207.719 350.235 203.37 366.287C199.022 382.34 206.044 390.358 210.055 391.371C214.065 392.385 239.8 392.038 239.133 395.38C238.467 398.722 221.12 404.101 211.406 401.069C211.406 401.069 222.101 427.486 236.14 426.148C250.18 424.81 254.524 416.136 263.216 415.446C271.908 414.756 278.255 417.122 273.911 419.459C269.567 421.797 254.862 420.228 247.844 426.199C240.827 432.17 235.141 435.85 248.177 438.526C261.213 441.201 284.606 439.526 289.283 429.495L293.965 419.459Z" fill="#93B3F4"/>
<path d="M215.758 371.305C215.758 371.305 285.943 394.046 293.964 419.445C293.964 419.445 293.631 430.818 300.649 443.862V448.875C300.649 448.875 293.294 431.823 289.283 429.48C289.283 429.494 304.993 407.419 215.758 371.305Z" fill="#93B3F4"/>
<path d="M300.649 443.877C300.649 443.877 311.474 460.324 305.303 480.343L302.527 479.594C302.527 479.594 305.229 457.546 299.567 446.451C293.905 435.356 300.649 443.877 300.649 443.877Z" fill="#93B3F4"/>
<path d="M333.845 400.087C333.845 400.087 300.802 381.572 316.22 356.446C316.22 356.446 328.557 341.018 341.773 337.047C341.773 337.047 334.723 374.541 341.773 375.402C348.823 376.263 346.621 333.08 346.621 333.08C346.621 333.08 381.422 316.328 395.083 317.652C395.083 317.652 373.493 354.22 380.543 353.359C387.593 352.498 411.824 315.448 411.824 315.448C411.824 315.448 447.508 308.834 453.235 329.997C458.962 351.16 449.71 361.737 444.446 363.056C439.182 364.376 405.237 363.941 406.12 368.347C407.004 372.754 429.911 379.813 442.665 375.841C442.665 375.841 428.565 410.669 410.062 408.905C391.558 407.142 385.831 395.681 374.377 394.801C362.923 393.922 354.55 397.005 360.277 400.087C366.004 403.17 385.391 401.101 394.643 408.97C403.895 416.839 411.385 421.69 394.181 425.218C376.977 428.745 346.177 426.541 340.006 413.317L333.845 400.087Z" fill="#93B3F4"/>
<path d="M436.934 336.606C436.934 336.606 344.415 366.606 333.845 400.087C333.845 400.087 334.308 415.08 325.056 432.271V438.881C325.056 438.881 334.77 416.399 340.034 413.316C340.007 413.316 319.306 384.219 436.934 336.606Z" fill="#3A49CD"/>
<path d="M325.032 432.272C325.032 432.272 310.761 453.953 318.898 480.342L322.566 479.356C322.566 479.356 319.005 450.287 326.471 435.669C333.937 421.051 325.032 432.272 325.032 432.272Z" fill="#3A49CD"/>
<path d="M332.73 537.575C349.896 537.574 366.359 530.75 378.497 518.604C390.635 506.458 397.455 489.985 397.456 472.808H268.004C268.005 489.985 274.825 506.458 286.963 518.604C299.101 530.75 315.564 537.574 332.73 537.575Z" fill="#FA7269"/>
<path d="M348.657 537.08C339.55 538.214 330.306 537.398 321.539 534.687C312.771 531.976 304.679 527.431 297.799 521.354C290.919 515.277 285.408 507.806 281.632 499.437C277.856 491.067 275.901 481.99 275.896 472.808H291.975C291.976 488.591 297.735 503.832 308.172 515.667C318.609 527.502 333.006 535.116 348.657 537.08Z" fill="#FC9290"/>
<path d="M398.349 540.87H267.111C267.111 538.751 267.952 536.719 269.449 535.221C270.947 533.723 272.978 532.881 275.095 532.881H390.364C392.482 532.881 394.513 533.723 396.01 535.221C397.508 536.719 398.349 538.751 398.349 540.87Z" fill="#FA7269"/>
<path d="M398.927 472.808H265.876V474.793H398.927V472.808Z" fill="#E75755"/>
<path d="M356.114 160.747L371.093 159.312C371.678 159.259 372.265 159.394 372.769 159.697C373.273 160 373.667 160.455 373.896 160.997L385.207 188.242C385.366 188.641 385.432 189.07 385.397 189.498C385.363 189.926 385.23 190.34 385.009 190.707C384.788 191.075 384.485 191.387 384.124 191.618C383.762 191.848 383.352 191.992 382.926 192.038L367.341 193.528C366.746 193.586 366.149 193.447 365.64 193.134C365.13 192.821 364.737 192.35 364.519 191.793L353.815 164.482C353.661 164.086 353.6 163.66 353.639 163.236C353.677 162.813 353.813 162.404 354.036 162.042C354.258 161.68 354.562 161.375 354.923 161.15C355.283 160.925 355.691 160.787 356.114 160.747Z" fill="#0D0D38"/>
<path d="M546.083 520.716L538.131 524.942C538.131 524.942 495.147 479.334 484.798 435.577C482.948 427.764 482.208 420.056 482.999 412.747C482.999 412.747 482.375 410.766 481.278 407.258C481.232 407.105 481.181 406.947 481.135 406.795C480.672 405.258 480.08 403.448 479.442 401.402C477.369 394.787 474.515 385.738 471.268 375.434C463.787 351.72 446.676 298.248 439.349 276.001L491.904 256.977C491.904 256.977 497.871 270.599 506.453 307.621C507.771 312.454 509.099 317.805 510.334 323.618C511.721 330.215 513.04 337.422 514.132 345.212C516.169 359.902 517.221 374.712 517.282 389.543C517.31 396.167 517.148 403.036 516.754 410.123C516.468 415.321 517.217 422.246 518.688 430.124C525.336 466.128 546.083 520.716 546.083 520.716Z" fill="#120E59"/>
<path d="M574.856 540.87H532.367C532.367 540.87 530.78 534.089 533.57 529.474C536.035 525.391 535.092 523.063 533.26 519.688C535.515 520.664 537.96 521.124 540.416 521.035C542.535 520.915 544.774 519.952 546.735 518.809C548.585 520.896 556.394 529.779 558.841 531.538C561.621 533.533 574 532.82 574.856 540.87Z" fill="#0D0D38"/>
<path d="M514.159 345.194L481.148 406.758C480.686 405.221 480.094 403.411 479.455 401.365C477.383 394.75 474.529 385.701 471.281 375.397C463.801 351.683 446.69 298.21 439.362 275.964L491.918 256.939C491.918 256.939 497.885 270.562 506.466 307.584C507.784 312.417 509.112 317.767 510.347 323.581C511.763 330.196 513.067 337.403 514.159 345.194Z" fill="#0D0D38"/>
<path d="M371.07 209.386C370.806 209.613 358.214 196.731 351.488 189.593L358.224 185.492L395.004 208.595L371.07 209.386Z" fill="#FDB3B1"/>
<path d="M438.539 527.563C438.539 527.563 437.549 534.779 440.32 540.871H457.922C457.922 540.871 458.056 535.612 453.573 529.011C449.091 522.411 438.539 527.563 438.539 527.563Z" fill="#0D0D38"/>
<path d="M473.234 57.607C473.47 56.4822 476.472 44.4193 495.17 47.0208C495.17 47.0208 485.839 46.5208 483.559 50.261C483.559 50.261 490.65 46.3773 495.438 48.8723C500.226 51.3673 501.665 60.7546 501.184 63.6847C500.703 66.6148 496.252 75.5439 492.894 75.7846C491.563 75.8231 490.239 75.5933 488.999 75.1088C489.664 76.7076 490.238 78.3427 490.72 80.0061C495.485 96.5358 485.247 110.094 479.252 107.354C475.408 105.599 473.072 112.274 473.072 112.274L439.464 73.7571C439.464 73.7571 458.986 46.5023 473.234 57.607Z" fill="#12123C"/>
<path d="M438.807 160.881C443.193 163.927 448.693 166.436 455.595 168.028C481.472 174.013 491.386 152.128 495.109 137.107C492.4 135.605 489.406 134.688 486.32 134.413C484.47 134.191 482.485 134.043 480.857 133.95C477.952 131.724 473.622 122.609 472.664 108.459L471.448 108.788L451.075 114.384C451.075 114.384 452 120.864 452.463 127.002C452.819 131.798 452.875 136.385 451.968 137.505C450.372 137.852 449.419 138.079 449.419 138.079C445.162 145.323 441.609 152.959 438.807 160.881Z" fill="#FDB3B1"/>
<path d="M451.075 114.389C451.075 114.389 452 120.87 452.463 127.007C464.028 125.85 469.375 114.843 471.466 108.807L451.075 114.389Z" fill="#FC9492"/>
<path d="M447.625 120.475C447.625 120.475 475.047 118.961 473.844 101.89C472.642 84.8189 475.366 73.1217 457.806 73.3671C440.246 73.6124 437.309 80.3659 436.328 86.1613C435.347 91.9566 440.464 120.429 447.625 120.475Z" fill="#FDB3B1"/>
<path d="M436.462 76.6127C440.325 71.1737 443.605 72.0717 445.511 73.4835C459.888 64.1749 470.412 75.6591 470.412 75.6591C473.118 87.7775 482.439 94.1746 482.439 94.1746C482.439 94.1746 477.665 97.6185 465.943 95.4846C462.363 94.8319 459.046 92.5591 456.159 89.717C459.562 94.455 463.594 98.7064 468.145 102.354C453.944 96.9797 447.051 78.2466 446.352 76.2609C444.789 77.8856 441.727 81.385 440.954 84.6576C439.899 89.1014 439.927 98.0814 437.3 97.9795C437.29 97.9795 430.675 84.7687 436.462 76.6127Z" fill="#12123C"/>
<path d="M443.188 136.704C443.188 136.704 487.861 125.85 507.285 141.884L497.571 277.353L410.21 256.236C410.21 256.236 412.666 247.663 429.421 224.866C446.177 202.069 438.886 168.634 443.188 136.704Z" fill="#FDB3B1"/>
<path d="M469.232 262.277C469.232 262.277 469.181 262.74 469.089 263.61C469.047 263.985 468.996 264.443 468.94 264.971C468.566 268.484 467.853 275.219 466.937 283.982C464.541 306.955 460.776 343.856 458.213 372.986C456.21 395.76 454.933 413.785 455.622 416.678C457.69 425.385 455.622 529.497 455.622 529.497C448.221 533.057 436.938 529.497 436.938 529.497C436.938 529.497 417.158 435.679 419.929 422.64C422.7 409.6 418.078 398.468 418.078 398.468C402.72 326.901 404.404 287.236 407.439 268.244C408.028 264.327 408.907 260.459 410.066 256.672C410.356 255.701 410.708 254.75 411.121 253.825C445.015 244.678 469.232 262.277 469.232 262.277Z" fill="#120E59"/>
<path d="M497.58 277.353C487.857 281.419 477.471 283.666 466.938 283.982C458.466 284.228 449.996 283.422 441.722 281.584C424.967 277.941 412.208 271.192 407.448 268.244C408.038 264.327 408.916 260.459 410.076 256.672C420.392 249.326 445.89 256.357 466.725 264.152L468.941 264.994C484.896 271.077 497.58 277.353 497.58 277.353Z" fill="#0D0D38"/>
<path d="M513.308 180.526C511.152 196.824 502.525 216.77 499.43 227.504C499.43 227.504 504.579 264.776 499.666 275.006C499.106 276.172 498.412 276.992 497.566 277.357C479.349 285.3 408.401 277.589 405.408 254.676C404.316 246.344 432.428 217.089 434.089 213.534C434.769 212.067 435.477 207.304 432.197 197.435C427.525 211.849 418.893 228.49 410.214 231.332C400.676 234.452 362.965 206.336 362.965 206.336C362.965 206.336 362.747 202.92 367.512 199.689C370.579 197.611 377.62 196.912 377.62 196.912L401.74 207.711C404.765 202.527 412.305 166.681 420.706 150.498C427.048 138.334 443.947 136.552 443.947 136.552C443.947 136.552 450.983 147.716 468.002 146.133C485.02 144.55 488.124 134.126 488.124 134.126C488.124 134.126 503.21 136.135 507.859 139.889C508.659 140.555 516.139 159.168 513.308 180.526Z" fill="#9AE7D7"/>
<path d="M499.444 227.5C499.444 227.5 504.593 264.772 499.68 275.002C486.404 268.336 469.103 253.945 474.372 231.463C482.018 198.797 513.308 180.545 513.308 180.545C511.166 196.82 502.525 216.766 499.444 227.5Z" fill="#8ED8C8"/>
<path d="M488.115 202.448C488.115 202.448 469.223 205.189 467.715 206.614C466.207 208.04 460.993 216.228 461.636 219.08C462.279 221.931 462.21 224.871 463.366 224.671C464.523 224.472 468.298 217.219 469.722 216.886C471.147 216.552 472.327 215.576 472.498 216.215C472.669 216.853 469.597 219.918 469.75 220.765C469.903 221.612 472.322 220.617 473.409 218.936C474.496 217.256 477.207 216.418 477.614 215.372C478.021 214.326 479.895 210.85 482.439 211.012C484.983 211.174 488.115 202.448 488.115 202.448Z" fill="#FDB3B1"/>
<path d="M506.499 201.703L488.116 202.448L481.824 211.026L506.827 211.864L506.499 201.703Z" fill="#FDB3B1"/>
<path d="M488.115 134.145C488.115 134.145 510.028 136.746 516.06 146.152C523.689 158.039 550.639 197.458 550.056 209.392C550.056 209.392 533.269 216.085 488.134 212.498C488.134 212.498 487.31 205.665 496.807 200.185C496.807 200.185 521.038 196.866 523.707 194.51L505.717 175.379L488.115 134.145Z" fill="#7FD5C2"/>
<path d="M352.848 161.043L367.832 159.613C368.416 159.557 369.004 159.69 369.507 159.992C370.011 160.295 370.405 160.751 370.63 161.293L381.941 188.539C382.107 188.936 382.177 189.367 382.145 189.797C382.114 190.226 381.983 190.643 381.761 191.012C381.54 191.381 381.235 191.693 380.87 191.923C380.506 192.153 380.093 192.294 379.665 192.335L364.062 193.825C363.467 193.878 362.872 193.737 362.364 193.425C361.855 193.112 361.461 192.644 361.24 192.089L350.535 164.779C350.387 164.382 350.331 163.955 350.373 163.533C350.414 163.111 350.552 162.704 350.776 162.343C350.999 161.982 351.302 161.678 351.661 161.452C352.02 161.227 352.427 161.087 352.848 161.043Z" fill="#120E59"/>
<path d="M351.488 189.594C351.488 189.594 347.528 182.766 347.829 181.086C348.129 179.406 352.219 171.601 354.305 170.824C358.061 169.435 363.335 168.583 361.887 172.541C360.93 175.152 357.136 178.938 357.798 180.128C358.459 181.317 358.205 185.493 358.205 185.493L351.488 189.594Z" fill="#FDB3B1"/>
<path d="M948.595 484.065C943.229 518.489 908.123 540.412 872.115 540.412H800.792L806.371 339.759C806.371 339.759 874.418 317.906 891.488 338.695C906.462 356.909 947.064 429.004 949.201 471.678C949.426 475.816 949.223 479.967 948.595 484.065Z" fill="#DDE8FD"/>
<path d="M759.274 361.01C759.274 361.01 855.493 311.87 873.706 343.971C883.383 361.015 910.01 429.008 911.976 471.682C913.886 513.148 877.985 540.407 841.056 540.407H775.469L759.274 361.01Z" fill="#3662C1"/>
<path d="M777.362 388.265C776.552 392.431 768.762 396.315 757.202 399.745C755.163 400.362 753.015 400.953 750.758 401.517C711.437 411.571 641.729 417.186 635.109 414.219C625.89 410.118 569.574 209.845 569.574 209.845C569.574 209.845 623.346 207.822 666.052 206.836C680.661 206.503 693.974 206.29 703.398 206.318C704.481 206.318 705.563 206.393 706.636 206.54C710.281 206.977 713.651 208.702 716.137 211.405C723.011 218.811 724.718 233.406 731.084 249.547C737.375 265.507 745.105 285.43 752.428 305.2C754.315 310.292 756.179 315.383 757.979 320.383L759.496 324.599C770.33 354.919 778.671 381.498 777.362 388.265Z" fill="#BED2FA"/>
<path d="M948.595 484.065C943.229 518.49 908.123 540.412 872.114 540.412H837.128C860.457 524.586 881.551 475.848 948.595 484.065Z" fill="#BED2FA"/>
<path d="M759.505 324.6C757.715 324.308 755.407 323.924 752.793 323.484C752.288 322.997 751.87 322.427 751.558 321.799C750.508 319.485 751.225 312.828 752.432 305.2C745.109 285.43 737.379 265.507 731.088 249.547C724.723 233.406 723.016 218.802 716.142 211.405C713.655 208.702 710.286 206.977 706.64 206.54C700.959 206.619 694.969 206.721 688.784 206.836C686.587 211.192 682.803 215.307 676.262 218.751C647.086 234.119 668.731 265.785 668.731 265.785C668.939 265.929 680.295 288.541 680.295 288.541C680.258 286.962 681.79 284.134 684.413 280.537C686.346 294.054 689.501 307.848 693.257 317.74C691.194 328.178 685.907 343.726 683.08 355.618C680.814 365.102 680.11 372.254 683.853 372.606C684.315 372.643 684.779 372.643 685.241 372.606C685.013 376.216 685.803 379.818 687.521 383.002C694.83 397.148 730.006 399.694 757.192 399.745C768.757 396.315 776.543 392.44 777.352 388.265C778.67 381.498 770.33 354.919 759.505 324.6Z" fill="#93B3F4"/>
<path d="M892.436 509.579C878.669 528.72 857.552 540.986 834.029 540.593L732.902 540.644L684.454 540.672L738.962 361.053C738.962 361.053 876.935 347.314 893.93 365.631C901.827 374.134 906.263 412.646 908.733 451.464C910.168 473.335 903.802 493.799 892.436 509.579Z" fill="#5076C9"/>
<path d="M892.436 509.579C878.669 528.719 857.552 540.986 834.029 540.592L732.901 540.643C744.804 530.65 782.228 502.288 822.298 503.612C852.672 504.658 876.791 504.223 892.436 509.579Z" fill="#3662C1"/>
<path d="M768.114 235.3C768.114 235.3 776.515 247.742 781.307 273.895C785.503 296.804 789.171 305.261 795.245 309.959C801.319 314.657 835.079 328.525 835.079 328.525L832.553 334.446C832.553 334.446 783.056 327.697 777.505 319.42C771.954 311.144 750.748 262.235 752.395 250.973C754.042 239.711 768.114 235.3 768.114 235.3Z" fill="#FCA09E"/>
<path d="M889.318 508.524C888.856 513.357 895.596 514.542 903.377 514.916C911.157 515.291 908.812 516.902 919.479 518.832C930.147 520.763 934.421 517.847 935.208 516.402C935.897 515.125 930.938 513.12 925.65 510.848C924.989 510.565 924.323 510.274 923.657 509.982C917.708 507.367 914.368 502.025 909.733 497.077C905.338 492.392 901.17 477.381 901.17 477.381L886.672 474.284C886.672 474.284 890.743 487.791 892.154 493.559C892.987 496.952 891.761 500.743 890.674 503.631C890.005 505.194 889.55 506.84 889.318 508.524Z" fill="#FDB3B1"/>
<path d="M903.377 514.916C911.162 515.305 908.812 516.902 919.48 518.832C930.147 520.762 934.422 517.846 935.208 516.402C935.897 515.124 930.938 513.12 925.651 510.847L925.572 510.935C920.302 512.459 914.719 512.527 909.414 511.13C902.355 509.213 895.536 504.992 890.674 503.631C890.013 505.19 889.564 506.831 889.337 508.51C888.874 513.342 895.582 514.527 903.377 514.916Z" fill="#B15252"/>
<path d="M744.971 336.519C744.971 336.519 841.296 329.261 859.43 340.718C877.564 352.174 906.647 485.569 906.647 485.569C906.647 485.569 904.852 487.009 900.842 487.421C897.113 487.823 888.902 485.629 888.902 485.629C888.902 485.629 847.107 425.944 844.16 410.91C841.213 395.875 841.935 382.456 835.232 382.095C828.529 381.734 744.961 392.279 732.319 369.981C719.676 347.684 730.131 325.637 730.131 325.637L744.971 336.519Z" fill="#060632"/>
<path d="M852.463 523.989C852.001 528.822 858.736 530.007 866.522 530.386C874.307 530.766 871.952 532.367 882.62 534.302C893.287 536.237 897.562 533.312 898.348 531.872C899.033 530.59 894.074 528.59 888.791 526.317C888.125 526.035 887.459 525.743 886.792 525.452C880.843 522.837 877.508 517.499 872.868 512.551C868.478 507.862 864.306 492.851 864.306 492.851L849.808 489.754C849.808 489.754 853.879 503.266 855.294 509.033C856.123 512.422 854.897 516.217 853.809 519.101C853.143 520.662 852.69 522.307 852.463 523.989Z" fill="#FDB3B1"/>
<path d="M866.522 530.399C874.307 530.784 871.952 532.381 882.62 534.316C893.287 536.25 897.562 533.325 898.348 531.885C899.033 530.603 894.074 528.604 888.791 526.331L888.708 526.423C883.437 527.945 877.854 528.01 872.549 526.613C865.495 524.697 858.671 520.48 853.809 519.114C853.149 520.673 852.701 522.314 852.477 523.993C852.019 528.835 858.736 530.006 866.522 530.399Z" fill="#B15252"/>
<path d="M726.106 342.495C726.106 342.495 811.686 346.55 829.347 358.696C847.009 370.842 870.898 505.27 870.898 505.27C870.898 505.27 869.047 506.658 865.023 506.917C861.285 507.172 853.162 504.663 853.162 504.663C853.162 504.663 813.703 443.395 811.362 428.259C809.021 413.123 810.247 399.74 803.562 399.097C796.878 398.454 712.959 405.739 701.195 382.979C689.431 360.219 726.106 342.495 726.106 342.495Z" fill="#0B0754"/>
<path d="M756.596 154.082C752.802 151.573 748.089 151.013 744.767 150.985C745.692 150.166 747.372 149.957 747.372 149.957C745.341 149.494 740.627 151.244 740.627 151.244C712.825 138.339 705.539 180.082 705.47 189.886C705.4 199.69 704.739 210.943 689.908 218.752C660.732 234.119 682.377 265.786 682.377 265.786C682.59 265.929 693.942 288.541 693.942 288.541C693.748 280.603 732.915 241.378 752.738 230.166C757.826 223.686 760.259 211.748 760.444 210.808C759.01 220.293 757.021 225.538 755.356 228.449C772.467 214.715 766.662 160.724 756.596 154.082Z" fill="#A83F3F"/>
<path d="M722.511 220.974C722.511 220.974 730.066 221.298 738.032 222.057C743.448 222.571 749.226 223.168 752.275 224.445C759.82 227.598 759.029 240.956 743.203 238.485C727.378 236.013 721.401 224.931 722.511 220.974Z" fill="#FDB3B1"/>
<path d="M751.609 230.712C751.702 230.763 753.866 242.206 743.504 241.748C736.704 241.451 722.035 233.212 723.326 227.398C723.946 224.621 729.085 217.442 730.117 201.014L731.357 201.347L752.173 206.934C752.173 206.934 751.248 213.544 750.818 219.802C750.457 225.07 750.443 230.055 751.609 230.712Z" fill="#FDB3B1"/>
<path d="M752.178 206.944C752.178 206.944 751.253 213.554 750.822 219.812C739.036 218.692 733.517 207.499 731.356 201.356L752.178 206.944Z" fill="#FCA09E"/>
<path d="M729.33 198.912C729.33 198.912 723.779 188.728 722.854 180.253C722.192 174.212 726.707 152.28 748.722 156.951C753.156 157.864 757.328 159.762 760.93 162.506C765.556 166.088 772.032 173.615 762.961 192.39L760.504 198.801L729.33 198.912Z" fill="#A83F3F"/>
<path d="M755.721 213.131C755.721 213.131 727.762 211.743 728.891 194.32C730.019 176.897 727.193 165 745.081 165.158C762.97 165.315 766.055 172.194 767.068 178.095C768.082 183.997 763.025 213.048 755.721 213.131Z" fill="#FDB3B1"/>
<path d="M757.854 165.579C757.854 165.579 748.842 185.483 736.907 187.733C724.972 189.983 720.087 186.483 720.087 186.483C720.087 186.483 729.566 179.929 732.286 167.565C732.286 167.565 752.733 155.474 757.854 165.579Z" fill="#A83F3F"/>
<path d="M755.846 167.102C755.846 167.102 761.254 172.046 762.355 176.573C763.456 181.1 763.47 190.265 766.148 190.131C766.148 190.131 772.833 176.633 766.879 168.348C760.569 159.571 755.846 167.102 755.846 167.102Z" fill="#A83F3F"/>
<path d="M783.704 337.978C781.442 340.686 774.373 341.514 766.824 342.759C760.879 343.741 754.639 344.972 750.198 347.583C740.118 353.503 707.177 373.504 697.532 372.606C693.789 372.255 694.488 365.108 696.755 355.623C700.326 340.644 707.792 319.837 707.792 310.792C707.792 305.858 709.434 294.175 711.627 280.82C711.803 279.742 711.988 278.659 712.168 277.58C716.503 251.612 722.512 220.992 722.512 220.992C722.512 220.992 729.21 235.61 742.26 235.61C755.31 235.61 752.275 224.459 752.275 224.459C752.275 224.459 764.182 225.848 766.995 228.894C769.807 231.939 776.945 245.03 778.361 248.608C778.361 248.608 778.652 253.154 767.397 255.32C767.397 255.32 770.136 267.665 770.46 275.895C770.705 281.978 766.296 301.007 765.057 312.843C764.594 317.037 764.548 320.323 765.228 321.818C766.097 323.73 768.928 325.633 772.12 327.503C778.481 331.192 786.41 334.761 783.704 337.978Z" fill="#0B0754"/>
<path d="M772.12 327.488C779.341 339.811 752.53 343.514 748.089 346.124C738.009 352.045 707.186 373.518 697.532 372.606C693.789 372.254 694.488 365.107 696.755 355.623C700.326 340.644 707.792 319.837 707.792 310.792C707.792 305.858 709.434 294.174 711.627 280.82L723.247 269.655C723.247 269.655 735.696 301.854 747.566 307.149C753.209 309.583 759.064 311.49 765.057 312.847C764.594 317.041 764.548 320.328 765.228 321.823C766.097 323.716 768.915 325.618 772.12 327.488Z" fill="#060632"/>
<path d="M718.94 230.611C718.94 230.611 709.004 224.593 699.4 236.027C689.797 247.46 706.228 329.34 720.458 333.548C736.269 338.218 781.936 332.798 781.936 332.798L781.058 325.656C781.058 325.656 732.439 316.328 730.417 313.732C728.396 311.135 723.992 231.93 718.94 230.611Z" fill="#FDB3B1"/>
<path d="M722.512 220.974C722.512 220.974 702.107 222.825 696.185 229.528C690.264 236.23 688.525 254.436 688.525 254.436C688.525 254.436 706.492 268.938 728.123 263.319L722.512 220.974Z" fill="#0B0754"/>
<path d="M813.652 336.625H786.706V339.81H813.652V336.625Z" fill="#9E332E"/>
<path d="M807.93 339.375C808.193 338.32 832.706 299.808 832.706 299.808H887.255L859.902 338.338L807.93 339.375Z" fill="#9E332E"/>
<path d="M810.224 339.81C810.488 338.755 835.079 299.808 835.079 299.808H887.255L861.234 339.81H810.224Z" fill="#A83F3F"/>
<path d="M856.206 319.939C855.913 320.726 855.399 321.411 854.726 321.913C854.053 322.415 853.25 322.711 852.413 322.767C850.849 322.767 850.021 321.499 850.562 319.939C850.857 319.153 851.372 318.468 852.045 317.967C852.719 317.466 853.523 317.17 854.36 317.115C855.914 317.115 856.724 318.379 856.206 319.939Z" fill="#9E332E"/>
<path d="M777.093 325.234C777.093 325.234 792.919 322.165 794.709 322.919C796.499 323.674 806.454 332.64 805.432 334.417C804.409 336.195 800.343 337.482 795.717 335.95C791.091 334.417 781.164 333.635 779.379 331.348C777.593 329.062 777.093 325.234 777.093 325.234Z" fill="#FDB3B1"/>
<path d="M808.614 485.865C802.832 519.253 771.098 540.412 738.564 540.412H672.996L678.126 339.759C678.126 339.759 740.706 317.906 756.42 338.695C770.191 356.909 807.536 429.004 809.502 471.678C809.726 476.425 809.428 481.183 808.614 485.865Z" fill="#DDE8FD"/>
<path d="M808.614 485.865C802.832 519.253 771.098 540.411 738.564 540.411H686.096C710.665 523.748 743.745 477.7 808.614 485.865Z" fill="#BED2FA"/>
<path d="M706.959 540.264L705.488 540.361C704.452 540.413 703.411 540.449 702.365 540.467H635.752V540.435L631.968 540.486C625.214 540.569 618.159 540.648 611.614 540.704L608.375 540.731H607.196C600.72 540.778 595.016 540.796 590.936 540.768C585.506 540.759 580.084 540.342 574.717 539.519C568.493 538.587 562.418 536.847 556.644 534.343C554.675 533.477 552.755 532.502 550.894 531.423C548.402 529.988 546.023 528.364 543.779 526.567C537.959 521.938 532.931 516.036 528.647 508.792C525.478 503.352 522.844 497.616 520.783 491.665C517.934 483.634 515.644 474.492 513.886 464.156C511.365 449.404 509.922 432.217 509.487 412.359C509.317 404.36 509.305 395.92 509.45 387.039C509.681 372.844 510.313 357.473 511.346 340.926C512.79 317.661 514.992 291.999 517.901 263.749C520.557 237.947 523.619 219.913 528.078 215.803C534.652 209.744 548.354 207.304 557.888 206.327C563.805 205.721 568.107 205.675 568.107 205.675C579.75 205.675 590.103 214.039 593.845 226.477C601.455 251.792 615.046 297.063 629.188 344.411C629.257 344.648 629.331 344.874 629.4 345.124C630.211 347.84 631.026 350.565 631.843 353.299C631.963 353.715 632.093 354.132 632.218 354.549C633.013 354.192 633.841 353.817 634.692 353.442L634.78 353.405C638.171 351.901 642.011 350.253 646.151 348.573C648.297 347.703 650.522 346.818 652.817 345.939C659.293 343.458 666.274 341.005 673.356 338.889C676.497 337.963 679.661 337.075 682.807 336.297C686.845 335.297 690.851 334.445 694.76 333.821L695.098 333.765C695.561 333.691 696.023 333.622 696.486 333.557C713.324 331.08 727.942 332.798 733.984 343.472C743.661 360.566 770.283 428.759 772.249 471.557C774.063 511.028 741.811 537.648 706.959 540.264Z" fill="#5076C9"/>
<path d="M601.747 362.557C601.747 362.557 568.084 225.325 565.665 213.794C564.582 208.652 561.247 206.795 557.884 206.319C563.8 205.712 568.107 205.666 568.107 205.666C579.755 205.666 590.108 213.998 593.846 226.403C601.997 253.445 617.008 303.312 632.241 354.105C631.441 354.109 601.747 362.557 601.747 362.557Z" fill="#DDE8FD"/>
<path d="M725.782 428.55C716.775 413.645 724.339 410.854 722.956 377.475C721.572 344.096 706.043 346.855 699.599 340.402C698.42 339.213 697.42 336.792 696.477 333.547C696.014 333.612 695.552 333.681 695.089 333.755L694.751 333.811C690.842 334.44 686.836 335.287 682.798 336.287C679.652 337.065 676.488 337.94 673.347 338.879C666.265 340.995 659.279 343.448 652.808 345.929C650.495 346.809 648.288 347.693 646.142 348.563C640.591 383.576 631.945 540.49 631.945 540.49L632.153 540.708C639.194 540.643 646.803 540.559 654.043 540.472L657.119 540.435V540.467H706.617L706.82 540.347L706.954 540.263C720.245 532.015 717.28 515.462 714.148 505.084C712.89 493.974 707.991 480.99 703.971 468.909C705.211 465.234 706.954 463.128 714.444 460.364C722.771 457.295 724.949 444.191 724.949 444.191C727.17 450.051 722.086 458.138 721.952 458.351C722.266 458.017 734.692 443.274 725.782 428.55Z" fill="#3662C1"/>
<path d="M615.213 360.908C615.213 360.908 565.281 382.664 556.219 382.28C547.156 381.895 491.303 365.259 491.303 365.259L492.728 374.873C492.728 374.873 535.827 399.675 550.894 401.082C565.729 402.471 616.457 387.76 621.352 384.654C626.246 381.548 629.443 364.051 615.213 360.908Z" fill="#FC9492"/>
<path d="M622.712 280.829C622.712 280.829 641.132 277.33 650.31 284.032C666.926 296.174 667.819 338.042 674.046 344.277C680.272 350.512 695.288 347.855 696.625 380.123C697.962 412.391 690.648 415.09 699.359 429.499C708.069 443.909 695.658 458.319 695.658 458.319C695.658 458.319 700.747 450.366 698.563 444.626C698.563 444.626 696.449 457.296 688.386 460.263C680.323 463.23 679.134 465.41 677.871 469.766C677.871 469.766 609.259 434.586 609.185 409.632C609.111 384.678 595.682 359.964 602.279 349.151C602.279 349.151 599.341 353.78 598.981 358.923C598.981 358.923 595.025 351.341 601.881 344.277C608.737 337.213 593.837 322.605 596.043 305.682C597.593 294.063 605.739 281.334 622.712 280.829Z" fill="#0D0D38"/>
<path d="M609.144 384.683C613.529 387.724 619.029 390.237 625.931 391.83C651.804 397.81 661.722 375.93 665.446 360.909C662.736 359.406 659.742 358.489 656.657 358.215C654.806 357.993 652.817 357.845 651.189 357.752C648.284 355.525 643.954 346.411 642.996 332.261L641.779 332.589L621.388 338.172C621.388 338.172 622.314 344.652 622.776 350.79C623.128 355.586 623.183 360.173 622.277 361.293C620.685 361.64 619.732 361.862 619.732 361.862V361.886C615.483 369.128 611.937 376.762 609.144 384.683Z" fill="#FDB3B1"/>
<path d="M621.412 338.191C621.412 338.191 622.337 344.671 622.799 350.804C634.364 349.647 639.716 338.644 641.803 332.604L621.412 338.191Z" fill="#FC9492"/>
<path d="M617.961 344.277C617.961 344.277 645.383 342.763 644.176 325.692C642.969 308.621 645.698 296.923 628.142 297.169C610.587 297.414 607.645 304.168 606.66 309.963C605.674 315.758 610.795 344.231 617.961 344.277Z" fill="#FDB3B1"/>
<path d="M606.794 300.413C610.661 294.975 613.941 295.873 615.842 297.284C630.224 287.976 640.744 299.46 640.744 299.46C643.454 311.578 652.771 317.975 652.771 317.975C652.771 317.975 648.002 321.419 636.28 319.285C632.699 318.633 629.382 316.355 626.496 313.518C629.889 318.258 633.912 322.514 638.454 326.169C624.252 320.794 617.36 302.061 616.666 300.076C615.102 301.7 612.04 305.2 611.262 308.468C610.208 312.916 605.665 319.864 603.038 319.748C603.051 319.734 600.998 308.57 606.794 300.413Z" fill="#0D0D38"/>
<path d="M673.255 440.47C675.734 427.805 683.806 377.193 675.734 360.909C672.834 355.058 661.454 354.53 648.968 355.044C645.083 357.553 630.28 367.033 624.201 365.852L623.859 365.774C620.995 365.056 619.917 363.043 622.304 361.307C617.661 360.996 612.997 361.282 608.427 362.158C604.092 362.973 592.393 369.032 592.393 369.032C592.393 369.032 598.282 379.679 606.969 383.382C605.494 396.602 607.691 402.434 621.398 432.971C632.963 458.786 619.834 482.037 619.834 482.037C619.834 482.037 688.021 536.894 688.4 508.963C688.701 487.883 670.09 456.661 673.255 440.47Z" fill="#A83F3F"/>
<path d="M616.466 541.657C614.635 541.449 612.87 540.844 611.296 539.885C609.721 538.926 608.374 537.635 607.349 536.102L606.294 534.51C598.532 522.753 595.511 486.749 578.053 448.39C573.801 439.053 558.536 437.373 554.377 426.815C554.377 426.815 544.131 392.598 573.982 391.589C603.833 390.58 653.932 486.796 654.723 496.887C655.495 506.663 674.462 548.202 616.466 541.657Z" fill="#7FD4C2"/>
<path d="M497.816 540.87H540.31C540.31 540.87 541.901 534.089 539.112 529.474C536.641 525.391 537.585 523.062 539.417 519.688C537.161 520.664 534.717 521.124 532.261 521.035C530.142 520.915 527.903 519.952 525.942 518.809C524.091 520.896 516.283 529.779 513.836 531.538C511.055 533.533 498.676 532.82 497.816 540.87Z" fill="#9E332E"/>
<path d="M668.777 374.175C668.777 374.175 674.328 424.519 638.44 435.068C602.552 445.617 592.398 388.747 621.351 384.659C650.305 380.572 668.777 374.175 668.777 374.175Z" fill="#9E332E"/>
<path d="M553.406 401.481C550.843 420.672 540.855 481.25 523.23 510.806C517.545 520.337 537.543 525.678 537.654 525.651C540.337 524.947 544.801 520.67 546.864 518.809C561.173 505.908 590.219 469.368 590.219 440.077C590.219 425.792 590.469 398.514 580.088 391.58C573.7 387.312 554.419 393.857 553.406 401.481Z" fill="#7FD4C2"/>
<path d="M641.803 540.869C641.803 540.869 640.23 538.675 637.482 534.509C634.216 529.543 630.603 519.822 626.213 507.324C621.587 494.21 616.138 478.074 609.305 461.285C607.196 456.105 604.957 450.856 602.575 445.621C598.323 436.285 586.624 437.571 582.466 427.018C582.466 427.018 566.224 390.417 596.075 389.408C625.926 388.399 682.654 487.309 685.916 496.89C689.482 507.37 706.894 550.914 641.803 540.869Z" fill="#9AE7D7"/>
<path d="M529.008 540.87H571.498C571.498 540.87 573.084 534.089 570.295 529.474C567.825 525.391 568.773 523.062 570.6 519.688C568.345 520.664 565.9 521.124 563.444 521.035C561.33 520.915 559.091 519.952 557.125 518.809C555.298 520.896 547.466 529.779 545.019 531.538C542.243 533.533 529.864 532.82 529.008 540.87Z" fill="#A83F3F"/>
<path d="M626.213 507.324C621.587 494.211 616.138 478.074 609.306 461.285C611.091 448.565 614.94 437.438 621.412 432.952C621.412 432.948 637.112 481.625 626.213 507.324Z" fill="#9AE7D7"/>
<path d="M578.206 400.12C575.647 419.311 572.044 481.25 554.419 510.806C548.738 520.337 568.759 525.678 568.843 525.65C571.526 524.947 575.994 520.67 578.053 518.809C592.361 505.908 621.412 469.368 621.412 440.076C621.412 425.792 604.657 399.657 594.281 392.728C587.888 388.455 579.223 392.496 578.206 400.12Z" fill="#9AE7D7"/>
<path d="M486.232 340.522L529.744 335.894C530.361 335.828 530.982 335.969 531.511 336.294C532.04 336.619 532.446 337.109 532.667 337.69L548.234 378.641C548.393 379.058 548.45 379.506 548.402 379.95C548.353 380.393 548.2 380.818 547.954 381.191C547.709 381.563 547.378 381.871 546.99 382.09C546.602 382.31 546.167 382.433 545.722 382.451L502.543 384.196C501.971 384.218 501.405 384.064 500.923 383.755C500.44 383.447 500.063 382.998 499.842 382.469L483.938 344.387C483.772 343.984 483.701 343.548 483.733 343.113C483.764 342.678 483.897 342.256 484.119 341.881C484.342 341.506 484.649 341.188 485.016 340.952C485.382 340.716 485.799 340.569 486.232 340.522Z" fill="#9E332E"/>
<path d="M482.453 340.922L525.965 336.293C526.581 336.228 527.202 336.368 527.73 336.692C528.259 337.016 528.666 337.505 528.888 338.084L544.473 379.027C544.632 379.443 544.69 379.891 544.641 380.334C544.593 380.777 544.439 381.203 544.194 381.575C543.948 381.946 543.618 382.254 543.229 382.473C542.841 382.692 542.406 382.815 541.961 382.831L498.783 384.577C498.211 384.599 497.645 384.447 497.162 384.139C496.68 383.831 496.302 383.383 496.081 382.855L480.172 344.801C480.004 344.398 479.931 343.961 479.96 343.525C479.99 343.089 480.12 342.666 480.342 342.29C480.563 341.913 480.869 341.593 481.236 341.356C481.602 341.118 482.019 340.97 482.453 340.922Z" fill="#A83F3F"/>
<path d="M506.568 360.034C506.036 358.572 506.79 357.387 508.252 357.387C509.043 357.439 509.802 357.715 510.442 358.184C511.081 358.653 511.573 359.295 511.86 360.034C512.387 361.497 511.638 362.677 510.176 362.677C509.386 362.626 508.627 362.35 507.987 361.882C507.348 361.414 506.856 360.773 506.568 360.034Z" fill="#9E332E"/>
<path d="M483.753 344.786C483.489 344.069 483.859 343.49 484.581 343.49C484.969 343.517 485.341 343.652 485.654 343.882C485.968 344.111 486.21 344.425 486.353 344.786C486.612 345.504 486.242 346.087 485.525 346.087C485.137 346.06 484.764 345.924 484.45 345.694C484.137 345.463 483.895 345.149 483.753 344.786Z" fill="#9E332E"/>
<path d="M665.446 360.908C665.446 360.908 605.137 383.127 596.057 382.664C590.2 382.372 541.517 365.25 541.517 365.25L537.168 373.55C537.168 373.55 584.552 404.022 597.574 403.873C623.294 403.573 666.69 387.779 671.589 384.673C676.488 381.567 679.675 364.051 665.446 360.908Z" fill="#FDB3B1"/>
<path d="M541.535 365.259C541.535 365.259 537.169 358.529 532.816 358.316C528.463 358.103 520.945 361.283 518.373 361.778C515.801 362.274 508.483 364.648 510.662 368.212C512.841 371.777 522.925 372.568 527.278 371.777C531.631 370.985 537.169 373.517 537.169 373.517L541.535 365.259Z" fill="#FDB3B1"/>
<path d="M534 358.539C534 358.539 527.061 355.363 525.1 354.766C523.138 354.169 523.517 354.766 524.11 356.655C524.702 358.544 528.273 360.321 528.273 360.909C528.273 361.497 534 358.539 534 358.539Z" fill="#FDB3B1"/>
<path d="M486.931 361.695C486.931 361.695 491.298 354.789 492.727 354.507C497.076 353.646 497.076 359.381 496.155 363.079C495.165 367.051 491.811 370.796 490.886 370.486C489.961 370.175 485.904 365.343 486.931 361.695Z" fill="#FDB3B1"/>
<path d="M486.769 363.079C486.769 363.079 485.381 370.828 492.727 374.874L486.769 363.079Z" fill="#FDB3B1"/>
<path d="M612.826 334.459C612.826 334.459 615.416 333.431 622.711 334.024C622.711 334.024 622.327 336.871 616.947 337.153C613.899 337.315 612.826 334.459 612.826 334.459Z" fill="white"/>
<path d="M634.374 371.87C634.374 371.87 639.767 388.955 658.29 392.843C658.29 392.843 688.881 383.409 673.652 362.556C673.652 362.556 658.59 351.359 634.374 371.87Z" fill="#A83F3F"/>
<path d="M1225.98 540.87H19.4428C18.6354 540.87 17.981 541.525 17.981 542.333V542.615C17.981 543.423 18.6354 544.078 19.4428 544.078H1225.98C1226.79 544.078 1227.45 543.423 1227.45 542.615V542.333C1227.45 541.525 1226.79 540.87 1225.98 540.87Z" fill="#0D0D38"/>
</svg>
