<svg width="375" height="375" viewBox="0 0 375 375" fill="none" xmlns="http://www.w3.org/2000/svg">
<ellipse cx="333" cy="187.5" rx="190" ry="187.5" fill="#DDE8FD"/>
<path d="M17.3661 274.8C17.3661 274.8 -4.05019 216.652 27.276 181.932C67.688 137.155 119.909 174.578 139.504 173.491C159.098 172.404 160.202 129.43 218.748 124.302C264.022 120.329 338.365 120.023 322.508 190.221C310.447 243.595 377.536 215.951 364.475 274.913L17.3661 274.8Z" fill="#DDE8FD"/>
<path d="M93.9558 239.511C93.9558 239.511 88.0942 233.016 93.5945 228.888C93.5945 228.888 97.6101 226.577 100.886 226.764C100.886 226.764 96.2406 234.157 97.746 234.892C99.2514 235.628 102.288 226.306 102.288 226.306C102.288 226.306 111.429 225.463 114.369 226.806C114.369 226.806 106.555 232.881 108.201 233.242C109.848 233.603 118.288 227.641 118.288 227.641C118.288 227.641 126.796 229.017 126.344 233.946C125.891 238.875 122.958 240.398 121.669 240.267C120.38 240.136 112.845 237.404 112.68 238.406C112.515 239.408 117.053 242.686 120.229 242.839C120.229 242.839 114.232 249.123 110.25 247.309C106.269 245.495 105.923 242.622 103.439 241.543C100.955 240.465 98.8316 240.468 99.8588 241.568C100.886 242.668 105.385 243.733 106.801 246.124C108.217 248.515 109.497 250.121 105.373 249.531C101.249 248.941 94.546 246.077 94.2501 242.794L93.9558 239.511Z" fill="#3A49CD"/>
<path d="M122.167 234.078C122.167 234.078 99.0591 233.232 93.9511 239.509C93.9511 239.509 92.8224 242.72 89.3488 245.644L88.8086 247.044C88.8086 247.044 92.8121 243.034 94.2453 242.795C94.2504 242.792 92.0104 235.015 122.167 234.078Z" fill="#3A49CD"/>
<path d="M89.3532 245.644C89.3532 245.644 84.3949 249.125 84.0508 255.353L84.9523 255.43C84.9523 255.43 86.5351 248.992 89.398 246.476C92.2608 243.959 89.3532 245.644 89.3532 245.644Z" fill="#3A49CD"/>
<path d="M73.4646 231.341C73.4646 231.341 82.7878 226.383 78.4368 219.653C78.4368 219.653 74.9563 215.521 71.2263 214.458C71.2263 214.458 73.2152 224.494 71.2263 224.729C69.2375 224.965 69.8603 213.396 69.8603 213.396C69.8603 213.396 60.0399 208.909 56.1791 209.263C56.1791 209.263 62.2713 219.068 60.2807 218.827C58.2902 218.585 51.4565 208.673 51.4565 208.673C51.4565 208.673 41.3883 206.902 39.7711 212.569C38.1539 218.237 40.7655 221.067 42.2572 221.425C43.7488 221.783 53.3197 221.66 53.072 222.84C52.8242 224.02 46.3725 225.919 42.7595 224.849C42.7595 224.849 46.7372 234.175 51.9589 233.703C57.1805 233.23 58.796 230.168 62.0287 229.924C65.2615 229.681 67.6219 230.516 66.0064 231.341C64.3909 232.167 58.9216 231.613 56.3116 233.721C53.7017 235.829 51.5872 237.128 56.4355 238.073C61.2838 239.017 69.9841 238.426 71.7235 234.884L73.4646 231.341Z" fill="#93B3F4"/>
<path d="M44.3789 214.341C44.3789 214.341 70.4818 222.37 73.4651 231.336C73.4651 231.336 73.3412 235.352 75.9511 239.957V241.727C75.9511 241.727 73.2156 235.706 71.724 234.879C71.724 234.884 77.5667 227.091 44.3789 214.341Z" fill="#93B3F4"/>
<path d="M75.9505 239.962C75.9505 239.962 79.9764 245.768 77.6813 252.836L76.649 252.572C76.649 252.572 77.6538 244.788 75.5479 240.871C73.4421 236.954 75.9505 239.962 75.9505 239.962Z" fill="#93B3F4"/>
<path d="M88.2973 224.503C88.2973 224.503 76.008 217.966 81.7423 209.096C81.7423 209.096 86.3308 203.649 91.2461 202.247C91.2461 202.247 88.6242 215.484 91.2461 215.788C93.8681 216.092 93.0492 200.847 93.0492 200.847C93.0492 200.847 105.992 194.932 111.073 195.4C111.073 195.4 103.043 208.31 105.665 208.006C108.287 207.702 117.299 194.622 117.299 194.622C117.299 194.622 130.571 192.287 132.701 199.758C134.831 207.23 131.39 210.964 129.432 211.43C127.474 211.895 114.849 211.742 115.178 213.298C115.506 214.853 124.026 217.345 128.769 215.943C128.769 215.943 123.525 228.239 116.644 227.616C109.762 226.994 107.632 222.948 103.372 222.637C99.1121 222.327 95.9981 223.415 98.128 224.503C100.258 225.592 107.468 224.861 110.909 227.639C114.35 230.417 117.136 232.13 110.737 233.375C104.339 234.621 92.884 233.843 90.5889 229.174L88.2973 224.503Z" fill="#93B3F4"/>
<path d="M126.638 202.092C126.638 202.092 92.2285 212.683 88.2972 224.503C88.2972 224.503 88.4692 229.796 85.0283 235.866V238.199C85.0283 238.199 88.6413 230.262 90.5992 229.174C90.5889 229.174 82.8898 218.901 126.638 202.092Z" fill="#3A49CD"/>
<path d="M85.0196 235.865C85.0196 235.865 79.7119 243.519 82.7382 252.836L84.1026 252.488C84.1026 252.488 82.7778 242.225 85.5546 237.064C88.3315 231.903 85.0196 235.865 85.0196 235.865Z" fill="#3A49CD"/>
<path d="M87.8823 273.042C94.2666 273.041 100.389 270.632 104.904 266.344C109.418 262.056 111.955 256.24 111.955 250.176H63.8096C63.81 256.24 66.3464 262.056 70.8608 266.344C75.3752 270.632 81.498 273.041 87.8823 273.042Z" fill="#FA7269"/>
<path d="M93.8053 272.867C90.4184 273.267 86.9805 272.979 83.7195 272.022C80.4586 271.065 77.449 269.46 74.8903 267.315C72.3316 265.169 70.2821 262.532 68.8777 259.577C67.4733 256.622 66.746 253.418 66.7441 250.176H72.7245C72.7246 255.748 74.8667 261.129 78.7484 265.307C82.6301 269.485 87.9843 272.173 93.8053 272.867Z" fill="#FC9290"/>
<path d="M112.287 274.204H63.4775C63.4775 273.456 63.7904 272.739 64.3473 272.21C64.9042 271.681 65.6595 271.384 66.4471 271.384H109.318C110.105 271.384 110.86 271.681 111.417 272.21C111.974 272.739 112.287 273.456 112.287 274.204Z" fill="#FA7269"/>
<path d="M112.503 250.176H63.0186V250.877H112.503V250.176Z" fill="#E75755"/>
<path d="M96.5791 140.004L102.15 139.497C102.368 139.479 102.586 139.526 102.773 139.633C102.961 139.74 103.107 139.901 103.193 140.092L107.399 149.711C107.459 149.851 107.483 150.003 107.47 150.154C107.457 150.305 107.408 150.451 107.326 150.581C107.244 150.711 107.131 150.821 106.996 150.902C106.862 150.984 106.71 151.035 106.551 151.051L100.755 151.577C100.533 151.597 100.311 151.548 100.122 151.438C99.9324 151.327 99.7862 151.161 99.7052 150.964L95.7241 141.322C95.6667 141.183 95.6442 141.032 95.6585 140.883C95.6727 140.733 95.7232 140.589 95.8061 140.461C95.8889 140.333 96.0019 140.225 96.136 140.146C96.2701 140.067 96.4218 140.018 96.5791 140.004Z" fill="#0D0D38"/>
<path d="M167.232 267.089L164.275 268.581C164.275 268.581 148.288 252.48 144.44 237.032C143.752 234.273 143.476 231.552 143.77 228.972C143.77 228.972 143.538 228.272 143.13 227.033C143.113 226.98 143.094 226.924 143.077 226.87C142.905 226.328 142.685 225.689 142.447 224.966C141.677 222.631 140.615 219.436 139.407 215.798C136.625 207.426 130.261 188.548 127.536 180.694L147.082 173.978C147.082 173.978 149.302 178.787 152.493 191.857C152.984 193.563 153.477 195.453 153.937 197.505C154.453 199.834 154.943 202.378 155.349 205.129C156.107 210.315 156.498 215.544 156.521 220.779C156.531 223.118 156.471 225.543 156.325 228.045C156.218 229.88 156.497 232.325 157.044 235.106C159.516 247.817 167.232 267.089 167.232 267.089Z" fill="#120E59"/>
<path d="M177.933 274.206H162.131C162.131 274.206 161.541 271.811 162.578 270.182C163.495 268.741 163.144 267.919 162.463 266.727C163.302 267.072 164.211 267.234 165.125 267.203C165.913 267.161 166.745 266.821 167.475 266.417C168.163 267.154 171.067 270.29 171.977 270.911C173.011 271.615 177.615 271.364 177.933 274.206Z" fill="#0D0D38"/>
<path d="M155.358 205.123L143.081 226.857C142.909 226.315 142.689 225.676 142.451 224.954C141.68 222.618 140.619 219.423 139.411 215.786C136.629 207.414 130.265 188.535 127.54 180.681L147.086 173.965C147.086 173.965 149.306 178.774 152.497 191.845C152.987 193.551 153.481 195.44 153.941 197.492C154.467 199.828 154.952 202.372 155.358 205.123Z" fill="#0D0D38"/>
<path d="M102.142 157.176C102.044 157.256 97.3609 152.708 94.8594 150.188L97.3644 148.74L111.044 156.897L102.142 157.176Z" fill="#FDB3B1"/>
<path d="M127.235 269.507C127.235 269.507 126.867 272.055 127.897 274.205H134.444C134.444 274.205 134.493 272.349 132.826 270.018C131.159 267.688 127.235 269.507 127.235 269.507Z" fill="#0D0D38"/>
<path d="M140.138 103.591C140.225 103.194 141.342 98.9356 148.296 99.854C148.296 99.854 144.826 99.6775 143.978 100.998C143.978 100.998 146.615 99.6268 148.396 100.508C150.176 101.389 150.712 104.703 150.533 105.737C150.354 106.772 148.699 109.924 147.45 110.009C146.955 110.023 146.462 109.941 146.001 109.77C146.248 110.335 146.462 110.912 146.641 111.499C148.413 117.335 144.606 122.122 142.376 121.154C140.946 120.535 140.077 122.891 140.077 122.891L127.578 109.293C127.578 109.293 134.838 99.671 140.138 103.591Z" fill="#12123C"/>
<path d="M127.334 140.051C128.965 141.127 131.011 142.012 133.578 142.574C143.202 144.687 146.889 136.961 148.274 131.658C147.266 131.128 146.152 130.804 145.005 130.707C144.317 130.628 143.579 130.576 142.973 130.543C141.893 129.757 140.282 126.54 139.926 121.544L139.474 121.66L131.897 123.636C131.897 123.636 132.241 125.924 132.413 128.091C132.545 129.784 132.566 131.403 132.229 131.799C131.635 131.921 131.281 132.001 131.281 132.001C129.698 134.559 128.376 137.254 127.334 140.051Z" fill="#FDB3B1"/>
<path d="M131.896 123.638C131.896 123.638 132.241 125.926 132.413 128.093C136.714 127.684 138.703 123.798 139.48 121.667L131.896 123.638Z" fill="#FC9492"/>
<path d="M130.613 125.787C130.613 125.787 140.812 125.253 140.365 119.226C139.918 113.199 140.931 109.069 134.4 109.156C127.869 109.242 126.777 111.627 126.412 113.673C126.047 115.719 127.95 125.771 130.613 125.787Z" fill="#FDB3B1"/>
<path d="M126.462 110.302C127.898 108.382 129.118 108.699 129.827 109.197C135.174 105.911 139.088 109.965 139.088 109.965C140.095 114.244 143.561 116.502 143.561 116.502C143.561 116.502 141.786 117.718 137.426 116.964C136.095 116.734 134.861 115.932 133.788 114.928C135.053 116.601 136.553 118.102 138.245 119.39C132.963 117.492 130.4 110.879 130.14 110.178C129.559 110.751 128.42 111.987 128.132 113.142C127.74 114.711 127.75 117.881 126.773 117.845C126.77 117.845 124.309 113.181 126.462 110.302Z" fill="#12123C"/>
<path d="M128.964 131.517C128.964 131.517 145.579 127.685 152.803 133.346L149.19 181.172L116.699 173.717C116.699 173.717 117.613 170.69 123.844 162.642C130.076 154.593 127.364 142.79 128.964 131.517Z" fill="#FDB3B1"/>
<path d="M138.649 175.849C138.649 175.849 138.63 176.012 138.596 176.32C138.58 176.452 138.562 176.614 138.541 176.8C138.402 178.04 138.137 180.418 137.796 183.512C136.905 191.622 135.504 204.65 134.551 214.934C133.806 222.975 133.331 229.338 133.588 230.359C134.357 233.433 133.588 270.19 133.588 270.19C130.835 271.447 126.639 270.19 126.639 270.19C126.639 270.19 119.282 237.068 120.313 232.464C121.343 227.861 119.624 223.931 119.624 223.931C113.912 198.664 114.539 184.661 115.667 177.956C115.887 176.573 116.213 175.207 116.645 173.87C116.752 173.527 116.883 173.192 117.037 172.865C129.643 169.636 138.649 175.849 138.649 175.849Z" fill="#120E59"/>
<path d="M149.192 181.171C145.576 182.607 141.714 183.4 137.796 183.512C134.645 183.598 131.495 183.314 128.418 182.665C122.186 181.379 117.441 178.996 115.671 177.955C115.89 176.573 116.217 175.207 116.648 173.87C120.485 171.276 129.968 173.759 137.717 176.511L138.541 176.808C144.475 178.955 149.192 181.171 149.192 181.171Z" fill="#0D0D38"/>
<path d="M155.043 146.989C154.241 152.743 151.032 159.784 149.881 163.574C149.881 163.574 151.796 176.733 149.969 180.344C149.761 180.756 149.503 181.045 149.188 181.175C142.413 183.979 116.026 181.256 114.913 173.167C114.507 170.225 124.962 159.897 125.58 158.642C125.833 158.124 126.096 156.443 124.876 152.958C123.138 158.047 119.928 163.922 116.7 164.926C113.153 166.027 99.1275 156.101 99.1275 156.101C99.1275 156.101 99.0467 154.895 100.819 153.754C101.959 153.02 104.578 152.774 104.578 152.774L113.548 156.586C114.674 154.756 117.478 142.101 120.602 136.388C122.961 132.093 129.246 131.464 129.246 131.464C129.246 131.464 131.863 135.405 138.192 134.847C144.522 134.288 145.676 130.607 145.676 130.607C145.676 130.607 151.287 131.317 153.016 132.642C153.314 132.877 156.096 139.448 155.043 146.989Z" fill="#9AE7D7"/>
<path d="M149.886 163.571C149.886 163.571 151.801 176.73 149.974 180.342C145.036 177.988 138.601 172.908 140.561 164.97C143.405 153.438 155.042 146.994 155.042 146.994C154.245 152.74 151.032 159.782 149.886 163.571Z" fill="#8ED8C8"/>
<path d="M145.673 154.727C145.673 154.727 138.647 155.694 138.086 156.197C137.525 156.701 135.586 159.592 135.825 160.598C136.064 161.605 136.038 162.643 136.468 162.572C136.899 162.502 138.302 159.941 138.832 159.824C139.362 159.706 139.801 159.361 139.865 159.587C139.928 159.812 138.786 160.894 138.843 161.193C138.899 161.492 139.799 161.141 140.204 160.548C140.608 159.954 141.616 159.659 141.767 159.289C141.919 158.92 142.616 157.693 143.562 157.75C144.508 157.807 145.673 154.727 145.673 154.727Z" fill="#FDB3B1"/>
<path d="M152.51 154.464L145.673 154.727L143.333 157.755L152.632 158.051L152.51 154.464Z" fill="#FDB3B1"/>
<path d="M145.673 130.613C145.673 130.613 153.823 131.532 156.066 134.852C158.903 139.049 168.927 152.966 168.71 157.179C168.71 157.179 162.466 159.542 145.68 158.275C145.68 158.275 145.373 155.863 148.906 153.928C148.906 153.928 157.917 152.757 158.91 151.925L152.219 145.171L145.673 130.613Z" fill="#7FD5C2"/>
<path d="M95.3641 140.11L100.937 139.605C101.154 139.585 101.373 139.632 101.56 139.739C101.747 139.846 101.894 140.007 101.978 140.198L106.184 149.817C106.246 149.957 106.272 150.11 106.26 150.261C106.249 150.413 106.2 150.56 106.117 150.69C106.035 150.821 105.921 150.931 105.786 151.012C105.651 151.093 105.497 151.143 105.338 151.157L99.5345 151.683C99.3135 151.702 99.0921 151.652 98.903 151.542C98.714 151.432 98.5674 151.266 98.4851 151.071L94.5039 141.429C94.4487 141.288 94.428 141.138 94.4435 140.989C94.459 140.84 94.5102 140.696 94.5933 140.569C94.6763 140.441 94.789 140.334 94.9226 140.254C95.0562 140.175 95.2073 140.125 95.3641 140.11Z" fill="#120E59"/>
<path d="M94.8591 150.188C94.8591 150.188 93.3864 147.778 93.4982 147.185C93.6101 146.592 95.131 143.836 95.9069 143.562C97.3039 143.071 99.2653 142.771 98.7268 144.168C98.3706 145.09 96.9598 146.427 97.2059 146.847C97.4519 147.267 97.3573 148.741 97.3573 148.741L94.8591 150.188Z" fill="#FDB3B1"/>
<path d="M316.933 254.15C314.938 266.304 301.881 274.044 288.489 274.044H261.963L264.038 203.204C264.038 203.204 289.346 195.489 295.694 202.828C301.263 209.259 316.364 234.712 317.159 249.777C317.242 251.239 317.167 252.704 316.933 254.15Z" fill="#DDE8FD"/>
<path d="M246.521 210.707C246.521 210.707 282.306 193.358 289.08 204.692C292.679 210.709 302.582 234.714 303.313 249.779C304.023 264.418 290.671 274.042 276.937 274.042H252.544L246.521 210.707Z" fill="#3662C1"/>
<path d="M253.248 220.329C252.947 221.8 250.05 223.171 245.751 224.382C244.993 224.6 244.194 224.809 243.354 225.008C228.73 228.557 202.805 230.54 200.343 229.492C196.914 228.044 175.969 157.339 175.969 157.339C175.969 157.339 195.967 156.625 211.851 156.277C217.284 156.159 222.235 156.084 225.74 156.094C226.143 156.094 226.545 156.12 226.944 156.172C228.3 156.326 229.553 156.935 230.478 157.89C233.035 160.504 233.67 165.657 236.037 171.355C238.377 176.99 241.252 184.024 243.975 191.003C244.677 192.801 245.37 194.599 246.04 196.364L246.604 197.852C250.633 208.556 253.735 217.94 253.248 220.329Z" fill="#BED2FA"/>
<path d="M316.933 254.15C314.937 266.304 301.88 274.043 288.488 274.043H275.477C284.153 268.456 291.998 251.249 316.933 254.15Z" fill="#BED2FA"/>
<path d="M246.607 197.851C245.941 197.748 245.083 197.613 244.111 197.457C243.923 197.285 243.767 197.084 243.651 196.863C243.261 196.045 243.527 193.695 243.976 191.002C241.253 184.023 238.378 176.989 236.038 171.354C233.671 165.656 233.036 160.5 230.479 157.888C229.555 156.934 228.301 156.325 226.946 156.171C224.833 156.199 222.605 156.235 220.305 156.275C219.487 157.813 218.08 159.266 215.647 160.482C204.796 165.907 212.846 177.087 212.846 177.087C212.924 177.138 217.148 185.121 217.148 185.121C217.134 184.564 217.703 183.565 218.679 182.295C219.398 187.067 220.571 191.937 221.968 195.429C221.201 199.114 219.234 204.604 218.183 208.802C217.34 212.15 217.079 214.675 218.471 214.8C218.642 214.813 218.815 214.813 218.987 214.8C218.902 216.074 219.196 217.346 219.835 218.47C222.553 223.464 235.636 224.363 245.747 224.381C250.048 223.17 252.943 221.802 253.245 220.328C253.735 217.939 250.633 208.555 246.607 197.851Z" fill="#93B3F4"/>
<path d="M296.047 263.157C290.927 269.915 283.073 274.246 274.325 274.107L236.714 274.125L218.695 274.134L238.968 210.721C238.968 210.721 290.282 205.871 296.603 212.337C299.54 215.339 301.19 228.936 302.109 242.64C302.642 250.362 300.274 257.586 296.047 263.157Z" fill="#5076C9"/>
<path d="M296.047 263.158C290.926 269.916 283.072 274.247 274.324 274.108L236.713 274.126C241.14 270.597 255.058 260.585 269.961 261.052C281.257 261.421 290.228 261.268 296.047 263.158Z" fill="#3662C1"/>
<path d="M249.809 166.325C249.809 166.325 252.933 170.718 254.715 179.951C256.276 188.039 257.64 191.025 259.899 192.683C262.158 194.342 274.714 199.238 274.714 199.238L273.775 201.328C273.775 201.328 255.366 198.946 253.301 196.024C251.237 193.102 243.35 175.835 243.963 171.859C244.575 167.883 249.809 166.325 249.809 166.325Z" fill="#FCA09E"/>
<path d="M294.886 262.785C294.714 264.492 297.221 264.91 300.115 265.042C303.009 265.175 302.136 265.743 306.104 266.425C310.071 267.106 311.661 266.077 311.953 265.567C312.21 265.116 310.365 264.408 308.399 263.606C308.153 263.506 307.905 263.403 307.657 263.3C305.445 262.377 304.203 260.491 302.479 258.744C300.844 257.09 299.294 251.791 299.294 251.791L293.902 250.697C293.902 250.697 295.416 255.466 295.941 257.502C296.251 258.7 295.795 260.038 295.391 261.058C295.142 261.61 294.972 262.191 294.886 262.785Z" fill="#FDB3B1"/>
<path d="M300.116 265.042C303.011 265.179 302.137 265.743 306.105 266.424C310.072 267.106 311.662 266.076 311.954 265.566C312.211 265.115 310.366 264.408 308.4 263.605L308.371 263.636C306.411 264.175 304.334 264.198 302.361 263.705C299.736 263.028 297.2 261.538 295.391 261.058C295.146 261.608 294.978 262.187 294.894 262.78C294.722 264.486 297.217 264.905 300.116 265.042Z" fill="#B15252"/>
<path d="M241.202 202.06C241.202 202.06 277.027 199.497 283.772 203.542C290.516 207.587 301.332 254.681 301.332 254.681C301.332 254.681 300.665 255.189 299.173 255.335C297.786 255.477 294.733 254.702 294.733 254.702C294.733 254.702 279.188 233.631 278.092 228.323C276.996 223.015 277.265 218.278 274.772 218.15C272.279 218.023 241.199 221.745 236.497 213.873C231.795 206.001 235.683 198.218 235.683 198.218L241.202 202.06Z" fill="#060632"/>
<path d="M281.18 268.246C281.008 269.952 283.513 270.37 286.408 270.504C289.304 270.638 288.428 271.204 292.396 271.887C296.363 272.57 297.953 271.537 298.245 271.029C298.5 270.576 296.655 269.87 294.691 269.068C294.443 268.968 294.195 268.865 293.947 268.762C291.735 267.839 290.495 265.955 288.769 264.208C287.136 262.552 285.584 257.252 285.584 257.252L280.192 256.159C280.192 256.159 281.706 260.929 282.233 262.966C282.541 264.162 282.085 265.502 281.681 266.52C281.433 267.071 281.264 267.652 281.18 268.246Z" fill="#FDB3B1"/>
<path d="M286.408 270.508C289.304 270.643 288.428 271.207 292.396 271.89C296.363 272.573 297.953 271.54 298.245 271.032C298.5 270.58 296.655 269.874 294.691 269.071L294.66 269.104C292.7 269.641 290.623 269.664 288.65 269.171C286.026 268.494 283.489 267.006 281.68 266.523C281.435 267.074 281.268 267.653 281.185 268.246C281.015 269.955 283.513 270.369 286.408 270.508Z" fill="#B15252"/>
<path d="M234.186 204.17C234.186 204.17 266.014 205.601 272.583 209.89C279.152 214.178 288.036 261.637 288.036 261.637C288.036 261.637 287.348 262.127 285.851 262.218C284.461 262.308 281.44 261.423 281.44 261.423C281.44 261.423 266.764 239.792 265.894 234.448C265.023 229.105 265.479 224.38 262.993 224.153C260.507 223.926 229.296 226.498 224.921 218.463C220.546 210.427 234.186 204.17 234.186 204.17Z" fill="#0B0754"/>
<path d="M245.525 137.651C244.114 136.765 242.361 136.568 241.126 136.558C241.47 136.268 242.094 136.195 242.094 136.195C241.339 136.032 239.586 136.649 239.586 136.649C229.246 132.093 226.536 146.83 226.51 150.292C226.484 153.753 226.238 157.726 220.723 160.482C209.872 165.908 217.922 177.088 217.922 177.088C218.001 177.138 222.223 185.121 222.223 185.121C222.151 182.319 236.718 168.47 244.09 164.512C245.982 162.224 246.887 158.01 246.956 157.678C246.423 161.027 245.683 162.878 245.064 163.906C251.428 159.057 249.268 139.996 245.525 137.651Z" fill="#A83F3F"/>
<path d="M232.849 161.267C232.849 161.267 235.658 161.381 238.621 161.649C240.636 161.83 242.784 162.041 243.918 162.492C246.724 163.605 246.43 168.321 240.544 167.449C234.659 166.576 232.436 162.664 232.849 161.267Z" fill="#FDB3B1"/>
<path d="M243.671 164.705C243.705 164.723 244.51 168.762 240.656 168.601C238.127 168.496 232.672 165.587 233.152 163.535C233.382 162.554 235.294 160.019 235.677 154.22L236.139 154.337L243.881 156.31C243.881 156.31 243.537 158.643 243.377 160.853C243.242 162.713 243.237 164.473 243.671 164.705Z" fill="#FDB3B1"/>
<path d="M243.883 156.313C243.883 156.313 243.538 158.647 243.378 160.856C238.995 160.461 236.942 156.509 236.139 154.341L243.883 156.313Z" fill="#FCA09E"/>
<path d="M235.385 153.478C235.385 153.478 233.321 149.883 232.977 146.891C232.731 144.758 234.41 137.015 242.597 138.664C244.246 138.986 245.798 139.657 247.138 140.625C248.858 141.89 251.267 144.547 247.893 151.176L246.979 153.439L235.385 153.478Z" fill="#A83F3F"/>
<path d="M245.2 158.498C245.2 158.498 234.802 158.008 235.221 151.857C235.641 145.705 234.59 141.506 241.243 141.561C247.896 141.617 249.044 144.045 249.42 146.129C249.797 148.212 247.917 158.469 245.2 158.498Z" fill="#FDB3B1"/>
<path d="M245.993 141.711C245.993 141.711 242.642 148.738 238.203 149.533C233.764 150.327 231.947 149.091 231.947 149.091C231.947 149.091 235.472 146.777 236.484 142.412C236.484 142.412 244.089 138.144 245.993 141.711Z" fill="#A83F3F"/>
<path d="M245.247 142.249C245.247 142.249 247.258 143.994 247.668 145.593C248.077 147.191 248.082 150.427 249.079 150.379C249.079 150.379 251.565 145.614 249.35 142.689C247.004 139.59 245.247 142.249 245.247 142.249Z" fill="#A83F3F"/>
<path d="M255.607 202.575C254.765 203.531 252.136 203.823 249.329 204.263C247.118 204.609 244.797 205.044 243.145 205.966C239.396 208.056 227.145 215.117 223.558 214.8C222.166 214.676 222.426 212.153 223.269 208.804C224.597 203.516 227.374 196.17 227.374 192.977C227.374 191.235 227.985 187.11 228.8 182.395C228.865 182.015 228.934 181.632 229.001 181.252C230.613 172.084 232.848 161.273 232.848 161.273C232.848 161.273 235.34 166.434 240.193 166.434C245.046 166.434 243.918 162.497 243.918 162.497C243.918 162.497 248.346 162.988 249.392 164.063C250.438 165.138 253.093 169.76 253.619 171.023C253.619 171.023 253.728 172.628 249.542 173.393C249.542 173.393 250.56 177.751 250.681 180.657C250.772 182.804 249.132 189.522 248.671 193.701C248.499 195.181 248.482 196.342 248.735 196.87C249.059 197.545 250.111 198.216 251.299 198.876C253.664 200.179 256.613 201.439 255.607 202.575Z" fill="#0B0754"/>
<path d="M251.299 198.873C253.984 203.223 244.012 204.53 242.361 205.452C238.612 207.542 227.148 215.123 223.558 214.801C222.166 214.677 222.426 212.154 223.269 208.805C224.597 203.517 227.374 196.171 227.374 192.978C227.374 191.236 227.985 187.111 228.8 182.397L233.122 178.455C233.122 178.455 237.752 189.823 242.166 191.692C244.265 192.551 246.443 193.225 248.671 193.704C248.499 195.184 248.482 196.345 248.735 196.873C249.059 197.541 250.106 198.213 251.299 198.873Z" fill="#060632"/>
<path d="M231.52 164.669C231.52 164.669 227.825 162.545 224.253 166.581C220.681 170.618 226.792 199.525 232.085 201.01C237.965 202.659 254.95 200.746 254.95 200.746L254.623 198.224C254.623 198.224 236.541 194.931 235.789 194.014C235.037 193.098 233.399 165.135 231.52 164.669Z" fill="#FDB3B1"/>
<path d="M232.848 161.267C232.848 161.267 225.259 161.92 223.057 164.287C220.855 166.653 220.208 173.08 220.208 173.08C220.208 173.08 226.89 178.2 234.935 176.216L232.848 161.267Z" fill="#0B0754"/>
<path d="M266.745 202.098H256.724V203.222H266.745V202.098Z" fill="#9E332E"/>
<path d="M264.617 203.068C264.715 202.695 273.832 189.099 273.832 189.099H294.12L283.947 202.702L264.617 203.068Z" fill="#9E332E"/>
<path d="M265.47 203.221C265.568 202.849 274.714 189.099 274.714 189.099H294.119L284.441 203.221H265.47Z" fill="#A83F3F"/>
<path d="M282.572 196.206C282.463 196.484 282.272 196.726 282.021 196.903C281.771 197.08 281.472 197.185 281.161 197.204C280.579 197.204 280.271 196.757 280.473 196.206C280.582 195.928 280.774 195.687 281.024 195.51C281.275 195.333 281.574 195.228 281.885 195.209C282.463 195.209 282.764 195.655 282.572 196.206Z" fill="#9E332E"/>
<path d="M253.148 198.075C253.148 198.075 259.034 196.992 259.7 197.258C260.366 197.524 264.068 200.69 263.688 201.317C263.308 201.945 261.795 202.399 260.075 201.858C258.355 201.317 254.662 201.041 253.998 200.234C253.334 199.427 253.148 198.075 253.148 198.075Z" fill="#FDB3B1"/>
<path d="M264.872 254.786C262.722 266.574 250.919 274.044 238.819 274.044H214.434L216.342 203.204C216.342 203.204 239.616 195.489 245.46 202.828C250.582 209.259 264.472 234.712 265.203 249.777C265.286 251.453 265.175 253.133 264.872 254.786Z" fill="#DDE8FD"/>
<path d="M264.871 254.786C262.721 266.573 250.918 274.043 238.818 274.043H219.305C228.442 268.16 240.745 251.903 264.871 254.786Z" fill="#BED2FA"/>
<path d="M227.064 273.99L226.517 274.024C226.132 274.043 225.745 274.056 225.356 274.062H200.581V274.051L199.174 274.069C196.662 274.098 194.038 274.126 191.604 274.145L190.4 274.155H189.961C187.552 274.172 185.431 274.178 183.914 274.168C181.894 274.165 179.878 274.018 177.882 273.727C175.567 273.398 173.307 272.784 171.16 271.9C170.427 271.594 169.713 271.25 169.021 270.869C168.094 270.362 167.21 269.789 166.375 269.155C164.211 267.52 162.341 265.437 160.747 262.879C159.569 260.958 158.589 258.933 157.823 256.833C156.763 253.997 155.911 250.77 155.257 247.121C154.32 241.912 153.783 235.845 153.621 228.834C153.558 226.01 153.554 223.03 153.608 219.895C153.694 214.883 153.929 209.457 154.313 203.615C154.85 195.401 155.669 186.341 156.751 176.368C157.738 167.259 158.877 160.892 160.536 159.441C162.981 157.302 168.077 156.44 171.623 156.096C173.823 155.882 175.423 155.865 175.423 155.865C179.753 155.865 183.604 158.818 184.996 163.209C187.826 172.147 192.881 188.129 198.14 204.846C198.166 204.929 198.193 205.009 198.219 205.097C198.521 206.056 198.824 207.018 199.128 207.983C199.172 208.13 199.22 208.277 199.267 208.424C199.563 208.299 199.871 208.166 200.187 208.034L200.22 208.021C201.481 207.49 202.909 206.908 204.449 206.315C205.247 206.007 206.075 205.695 206.928 205.385C209.337 204.509 211.933 203.643 214.567 202.896C215.735 202.569 216.912 202.255 218.082 201.981C219.584 201.628 221.074 201.327 222.528 201.106L222.653 201.087C222.825 201.061 222.997 201.036 223.169 201.013C229.432 200.139 234.868 200.745 237.115 204.514C240.715 210.549 250.616 234.624 251.347 249.734C252.022 263.669 240.026 273.067 227.064 273.99Z" fill="#5076C9"/>
<path d="M187.935 211.252C187.935 211.252 175.415 162.803 174.515 158.732C174.112 156.916 172.872 156.261 171.621 156.093C173.822 155.879 175.423 155.862 175.423 155.862C179.755 155.862 183.606 158.804 184.996 163.184C188.027 172.731 193.61 190.336 199.276 208.268C198.978 208.27 187.935 211.252 187.935 211.252Z" fill="#DDE8FD"/>
<path d="M234.065 234.551C230.715 229.289 233.528 228.304 233.013 216.519C232.499 204.735 226.723 205.709 224.327 203.431C223.888 203.011 223.516 202.156 223.166 201.011C222.993 201.034 222.821 201.058 222.649 201.084L222.524 201.104C221.07 201.326 219.58 201.625 218.078 201.978C216.908 202.253 215.731 202.562 214.563 202.893C211.929 203.64 209.331 204.506 206.924 205.382C206.064 205.693 205.243 206.005 204.445 206.312C202.381 218.673 199.165 274.071 199.165 274.071L199.242 274.148C201.861 274.125 204.691 274.096 207.384 274.064L208.528 274.051V274.063H226.937L227.012 274.02L227.062 273.991C232.005 271.079 230.902 265.235 229.738 261.571C229.27 257.649 227.448 253.065 225.953 248.8C226.414 247.502 227.062 246.759 229.848 245.783C232.945 244.7 233.755 240.073 233.755 240.073C234.581 242.142 232.69 244.997 232.64 245.072C232.757 244.954 237.378 239.75 234.065 234.551Z" fill="#3662C1"/>
<path d="M192.943 210.671C192.943 210.671 174.372 218.352 171.002 218.216C167.631 218.08 146.858 212.207 146.858 212.207L147.388 215.601C147.388 215.601 163.418 224.357 169.021 224.854C174.539 225.344 193.406 220.151 195.226 219.054C197.046 217.958 198.235 211.781 192.943 210.671Z" fill="#FC9492"/>
<path d="M195.732 182.399C195.732 182.399 202.583 181.163 205.996 183.529C212.176 187.816 212.508 202.597 214.824 204.799C217.139 207 222.724 206.062 223.221 217.454C223.719 228.846 220.998 229.799 224.238 234.886C227.478 239.973 222.862 245.06 222.862 245.06C222.862 245.06 224.754 242.253 223.942 240.226C223.942 240.226 223.156 244.699 220.157 245.747C217.158 246.794 216.716 247.564 216.247 249.102C216.247 249.102 190.729 236.682 190.701 227.872C190.674 219.062 185.679 210.337 188.132 206.519C188.132 206.519 187.04 208.154 186.906 209.969C186.906 209.969 185.435 207.292 187.984 204.799C190.534 202.305 184.993 197.147 185.813 191.173C186.39 187.071 189.419 182.577 195.732 182.399Z" fill="#0D0D38"/>
<path d="M190.686 219.064C192.317 220.138 194.362 221.025 196.929 221.587C206.552 223.699 210.24 215.974 211.625 210.671C210.618 210.14 209.504 209.816 208.356 209.72C207.668 209.641 206.928 209.589 206.323 209.556C205.242 208.77 203.632 205.552 203.276 200.557L202.823 200.673L195.24 202.644C195.24 202.644 195.584 204.931 195.756 207.098C195.886 208.791 195.907 210.411 195.57 210.806C194.978 210.929 194.624 211.007 194.624 211.007V211.016C193.043 213.573 191.724 216.268 190.686 219.064Z" fill="#FDB3B1"/>
<path d="M195.247 202.649C195.247 202.649 195.591 204.937 195.763 207.102C200.064 206.694 202.055 202.809 202.831 200.677L195.247 202.649Z" fill="#FC9492"/>
<path d="M193.965 204.799C193.965 204.799 204.164 204.264 203.715 198.237C203.266 192.21 204.281 188.081 197.752 188.167C191.223 188.254 190.128 190.638 189.762 192.684C189.396 194.73 191.3 204.782 193.965 204.799Z" fill="#FDB3B1"/>
<path d="M189.811 189.313C191.25 187.392 192.47 187.709 193.177 188.208C198.526 184.921 202.438 188.976 202.438 188.976C203.446 193.254 206.911 195.513 206.911 195.513C206.911 195.513 205.137 196.729 200.778 195.975C199.446 195.745 198.212 194.941 197.139 193.939C198.401 195.613 199.897 197.115 201.586 198.405C196.304 196.508 193.741 189.894 193.483 189.193C192.901 189.767 191.762 191.002 191.473 192.156C191.081 193.727 189.392 196.18 188.414 196.139C188.42 196.134 187.656 192.192 189.811 189.313Z" fill="#0D0D38"/>
<path d="M214.53 238.759C215.452 234.288 218.454 216.42 215.452 210.671C214.373 208.605 210.141 208.419 205.497 208.6C204.052 209.486 198.547 212.833 196.286 212.416L196.159 212.388C195.094 212.135 194.693 211.424 195.581 210.811C193.854 210.702 192.119 210.803 190.419 211.112C188.807 211.4 184.456 213.539 184.456 213.539C184.456 213.539 186.646 217.297 189.877 218.605C189.328 223.272 190.146 225.331 195.243 236.112C199.545 245.226 194.662 253.435 194.662 253.435C194.662 253.435 220.021 272.802 220.163 262.941C220.274 255.499 213.353 244.476 214.53 238.759Z" fill="#A83F3F"/>
<path d="M193.409 274.483C192.728 274.409 192.072 274.196 191.486 273.857C190.9 273.518 190.4 273.063 190.018 272.522L189.626 271.959C186.739 267.809 185.615 255.098 179.122 241.555C177.541 238.259 171.864 237.666 170.317 233.938C170.317 233.938 166.506 221.858 177.608 221.502C188.71 221.146 207.343 255.114 207.637 258.677C207.925 262.128 214.978 276.793 193.409 274.483Z" fill="#7FD4C2"/>
<path d="M149.28 274.205H165.084C165.084 274.205 165.676 271.811 164.639 270.181C163.72 268.74 164.071 267.918 164.752 266.726C163.913 267.071 163.004 267.233 162.091 267.202C161.303 267.16 160.47 266.82 159.741 266.416C159.053 267.153 156.148 270.289 155.238 270.91C154.204 271.614 149.6 271.363 149.28 274.205Z" fill="#9E332E"/>
<path d="M212.864 215.354C212.864 215.354 214.929 233.127 201.581 236.851C188.234 240.576 184.458 220.498 195.226 219.055C205.994 217.612 212.864 215.354 212.864 215.354Z" fill="#9E332E"/>
<path d="M169.955 224.994C169.002 231.769 165.288 253.156 158.733 263.59C156.618 266.955 164.056 268.841 164.097 268.831C165.095 268.583 166.755 267.073 167.523 266.416C172.844 261.861 183.647 248.961 183.647 238.62C183.647 233.577 183.74 223.946 179.879 221.498C177.503 219.992 170.332 222.302 169.955 224.994Z" fill="#7FD4C2"/>
<path d="M202.832 274.205C202.832 274.205 202.247 273.43 201.225 271.96C200.01 270.206 198.667 266.774 197.034 262.362C195.313 257.732 193.287 252.035 190.746 246.108C189.961 244.279 189.128 242.426 188.242 240.578C186.661 237.282 182.31 237.736 180.763 234.01C180.763 234.01 174.723 221.088 185.825 220.732C196.927 220.376 218.025 255.296 219.238 258.678C220.565 262.378 227.04 277.751 202.832 274.205Z" fill="#9AE7D7"/>
<path d="M160.882 274.205H176.684C176.684 274.205 177.274 271.811 176.237 270.181C175.318 268.74 175.671 267.918 176.351 266.726C175.512 267.071 174.602 267.234 173.689 267.202C172.903 267.16 172.07 266.82 171.339 266.416C170.659 267.153 167.746 270.289 166.836 270.91C165.804 271.614 161.2 271.363 160.882 274.205Z" fill="#A83F3F"/>
<path d="M197.034 262.361C195.314 257.732 193.287 252.035 190.746 246.107C191.41 241.617 192.842 237.688 195.249 236.104C195.249 236.103 201.088 253.288 197.034 262.361Z" fill="#9AE7D7"/>
<path d="M179.179 224.514C178.228 231.29 176.887 253.157 170.332 263.591C168.22 266.956 175.666 268.842 175.697 268.832C176.695 268.584 178.357 267.074 179.122 266.417C184.444 261.862 195.248 248.962 195.248 238.621C195.248 233.577 189.017 224.351 185.158 221.904C182.78 220.396 179.558 221.823 179.179 224.514Z" fill="#9AE7D7"/>
<path d="M144.972 203.473L161.155 201.839C161.385 201.815 161.616 201.865 161.812 201.98C162.009 202.095 162.16 202.268 162.242 202.473L168.032 216.93C168.091 217.077 168.112 217.236 168.094 217.392C168.076 217.549 168.019 217.699 167.928 217.83C167.836 217.962 167.714 218.071 167.569 218.148C167.425 218.225 167.263 218.269 167.097 218.275L151.039 218.891C150.826 218.899 150.615 218.845 150.436 218.736C150.256 218.627 150.116 218.469 150.034 218.282L144.119 204.837C144.057 204.695 144.031 204.541 144.043 204.387C144.054 204.234 144.104 204.085 144.187 203.952C144.269 203.82 144.383 203.708 144.52 203.624C144.656 203.541 144.811 203.489 144.972 203.473Z" fill="#9E332E"/>
<path d="M143.567 203.614L159.75 201.98C159.979 201.957 160.21 202.007 160.406 202.121C160.603 202.235 160.754 202.408 160.837 202.612L166.633 217.067C166.693 217.214 166.714 217.372 166.696 217.529C166.678 217.685 166.621 217.835 166.529 217.967C166.438 218.098 166.315 218.207 166.171 218.284C166.026 218.361 165.865 218.404 165.699 218.41L149.64 219.026C149.428 219.034 149.217 218.98 149.038 218.872C148.858 218.763 148.718 218.605 148.636 218.418L142.719 204.984C142.656 204.841 142.629 204.687 142.64 204.533C142.651 204.379 142.7 204.23 142.782 204.097C142.864 203.964 142.978 203.851 143.114 203.768C143.251 203.684 143.406 203.631 143.567 203.614Z" fill="#A83F3F"/>
<path d="M152.536 210.362C152.338 209.845 152.619 209.427 153.162 209.427C153.456 209.445 153.739 209.543 153.977 209.708C154.214 209.874 154.398 210.101 154.504 210.362C154.7 210.878 154.422 211.295 153.878 211.295C153.584 211.276 153.302 211.179 153.064 211.014C152.826 210.848 152.643 210.622 152.536 210.362Z" fill="#9E332E"/>
<path d="M144.05 204.978C143.952 204.725 144.09 204.521 144.358 204.521C144.502 204.53 144.641 204.578 144.757 204.659C144.874 204.74 144.964 204.85 145.017 204.978C145.113 205.231 144.976 205.437 144.709 205.437C144.565 205.428 144.426 205.38 144.31 205.298C144.193 205.217 144.103 205.106 144.05 204.978Z" fill="#9E332E"/>
<path d="M211.625 210.671C211.625 210.671 189.196 218.515 185.818 218.352C183.64 218.249 165.534 212.204 165.534 212.204L163.917 215.134C163.917 215.134 181.54 225.892 186.383 225.84C195.949 225.733 212.088 220.157 213.91 219.061C215.732 217.964 216.918 211.781 211.625 210.671Z" fill="#FDB3B1"/>
<path d="M165.541 212.206C165.541 212.206 163.917 209.83 162.298 209.755C160.679 209.679 157.883 210.802 156.927 210.977C155.97 211.152 153.249 211.99 154.059 213.249C154.869 214.507 158.62 214.786 160.239 214.507C161.858 214.227 163.917 215.121 163.917 215.121L165.541 212.206Z" fill="#FDB3B1"/>
<path d="M162.738 209.833C162.738 209.833 160.158 208.712 159.428 208.501C158.699 208.291 158.84 208.501 159.06 209.168C159.28 209.835 160.609 210.462 160.609 210.67C160.609 210.877 162.738 209.833 162.738 209.833Z" fill="#FDB3B1"/>
<path d="M145.232 210.948C145.232 210.948 146.856 208.51 147.388 208.411C149.005 208.107 149.005 210.131 148.663 211.437C148.295 212.839 147.047 214.161 146.703 214.052C146.359 213.942 144.85 212.236 145.232 210.948Z" fill="#FDB3B1"/>
<path d="M145.173 211.437C145.173 211.437 144.656 214.172 147.389 215.601L145.173 211.437Z" fill="#FDB3B1"/>
<path d="M192.055 201.332C192.055 201.332 193.018 200.969 195.731 201.178C195.731 201.178 195.589 202.183 193.588 202.283C192.454 202.34 192.055 201.332 192.055 201.332Z" fill="white"/>
<path d="M200.069 214.54C200.069 214.54 202.075 220.572 208.964 221.944C208.964 221.944 220.342 218.614 214.678 211.252C214.678 211.252 209.076 207.299 200.069 214.54Z" fill="#A83F3F"/>
<path d="M420.099 274.205H-28.6341C-28.9343 274.205 -29.1777 274.436 -29.1777 274.721V274.821C-29.1777 275.106 -28.9343 275.338 -28.6341 275.338H420.099C420.399 275.338 420.643 275.106 420.643 274.821V274.721C420.643 274.436 420.399 274.205 420.099 274.205Z" fill="#0D0D38"/>
</svg>
