<svg width="28" height="28" viewBox="0 0 28 28" fill="none" xmlns="http://www.w3.org/2000/svg">
<path fill-rule="evenodd" clip-rule="evenodd" d="M17.7571 8.13206C17.8383 8.05058 17.9349 7.98593 18.0412 7.94182C18.1475 7.89771 18.2615 7.875 18.3766 7.875C18.4917 7.875 18.6056 7.89771 18.7119 7.94182C18.8182 7.98593 18.9148 8.05058 18.9961 8.13206L24.2461 13.3821C24.3276 13.4633 24.3922 13.5599 24.4363 13.6662C24.4804 13.7725 24.5031 13.8865 24.5031 14.0016C24.5031 14.1167 24.4804 14.2306 24.4363 14.3369C24.3922 14.4432 24.3276 14.5398 24.2461 14.6211L18.9961 19.8711C18.8318 20.0354 18.6089 20.1277 18.3766 20.1277C18.1442 20.1277 17.9214 20.0354 17.7571 19.8711C17.5928 19.7068 17.5005 19.4839 17.5005 19.2516C17.5005 19.0192 17.5928 18.7964 17.7571 18.6321L22.3893 14.0016L17.7571 9.37106C17.6756 9.28978 17.6109 9.19323 17.5668 9.08692C17.5227 8.98062 17.5 8.86666 17.5 8.75156C17.5 8.63647 17.5227 8.52251 17.5668 8.4162C17.6109 8.3099 17.6756 8.21334 17.7571 8.13206V8.13206Z" fill="#51B239"/>
<path fill-rule="evenodd" clip-rule="evenodd" d="M3.5 14C3.5 13.7679 3.59219 13.5454 3.75628 13.3813C3.92038 13.2172 4.14294 13.125 4.375 13.125H22.75C22.9821 13.125 23.2046 13.2172 23.3687 13.3813C23.5328 13.5454 23.625 13.7679 23.625 14C23.625 14.2321 23.5328 14.4546 23.3687 14.6187C23.2046 14.7828 22.9821 14.875 22.75 14.875H4.375C4.14294 14.875 3.92038 14.7828 3.75628 14.6187C3.59219 14.4546 3.5 14.2321 3.5 14Z" fill="#51B239"/>
</svg>
